/* XPM */
static const char *rpcpp_xpm[] = {
/* columns rows colors chars-per-pixel */
"32 32 228 2",
"   c #F0F0F0",
"!. c #EB5E00",
"K. c #EB5E01",
"y. c #B85514",
"1. c #BD5916",
"`  c #C76118",
"W  c #4B4B4B",
" . c #C08F2E",
".. c #FCDA9E",
";X c #FCEFE6",
"sX c #ECBE9F",
"%. c #C05D17",
"'  c #C56118",
"Y  c #CA6519",
"N  c #CF691B",
"h  c #D46D1C",
"_. c #FFFFFF",
"{  c #444444",
"L. c #EE5F00",
"+  c #FFEABD",
"e. c #68B93E",
";  c #FFE7B4",
"$  c #FFEABE",
"J  c #E1C99B",
"r  c #FFE7B5",
"F  c #FFE4AC",
"2  c #FFE4AD",
":  c #FFE7B7",
"tX c #615A00",
"w  c #FFE4AE",
"dX c #E49E70",
"Z. c #FFE1A5",
"G  c #FFE4AF",
"4  c #FFE1A6",
",X c #E68F55",
"b. c #FFE1A7",
"3. c #FFDE9E",
"m. c #8A7F6A",
"gX c #EFC5A9",
"G. c #B64F14",
"wX c #D15400",
"-. c #C0E46B",
"9X c #E4955F",
"y  c #C6B593",
"w. c #B95615",
"<. c #BE5A16",
"_  c #C86219",
"k. c #D38646",
"x. c #E3AB6F",
"8X c #EAAF87",
"'. c #EE9458",
"@. c #C66219",
"(  c #CB661A",
"z  c #D06A1B",
"g  c #D56E1D",
"p. c #545454",
"i. c #B75314",
"u  c #F6DDA9",
"c. c #B75316",
"=X c #E79055",
"n  c #7C7465",
"rX c #D25806",
"[. c #E35B00",
"qX c #81CC00",
"#  c #0BF7CB",
"OX c #FBEDE3",
"V. c #D48D51",
"-X c #EA9A64",
"q. c #BA5715",
",. c #BF5B16",
"5. c #C45F18",
")  c #C96319",
"%X c #FEFAF7",
";. c #FEE5B2",
"|. c #F5C19F",
"Q. c #C28200",
"). c #E65C00",
"l. c #CA7635",
"o. c #CC671A",
"l  c #D16B1B",
"M  c #D16B1C",
"f  c #D66F1D",
"aX c #E6A67B",
"s. c #61544B",
"9  c #0C1045",
"hX c #19CE00",
"I. c #E45C03",
"7. c #CD7734",
"0. c #BB5815",
"4. c #C56018",
">. c #C05C17",
"O. c #CA6419",
"@X c #FCEBE0",
"O  c #FFE9BB",
"oX c #E57225",
"]. c #FFFBF8",
"t  c #FFE9BC",
"-  c #FFE6B2",
"e  c #FFE6B3",
"i  c #FFE3AA",
"&  c #FFE6B4",
"v. c #B65114",
"Q  c #FFE3AB",
"=. c #FFE0A2",
"q  c #FFE3AC",
"p  c #FFE0A3",
"6X c #D65A00",
"}  c #FFE0A4",
"*X c #F4CBAF",
"X  c #856520",
"H. c #B64E15",
"X. c #CD681A",
"k  c #D26C1C",
"d  c #D7701D",
"S. c #474747",
",  c #00D57B",
"#X c #F7D5BD",
"&X c #DB5800",
"5  c #14F1AF",
"pX c #E29A69",
"4X c #E79E6D",
"L  c #564D45",
"yX c #CF5300",
"9. c #BC5916",
":. c #C66118",
"$. c #C15D17",
"U  c #CB651A",
"x  c #D0691B",
"b  c #4F4F4F",
"(. c #003300",
"~. c #4F5D00",
"=  c #17F8BC",
"g. c #B75214",
"$X c #DE5900",
"1X c #EAA271",
"{. c #EC9358",
"f. c #E1A76B",
"B  c #CE691B",
"j  c #D36D1C",
"s  c #D8711D",
"5X c #D75804",
"R. c #ED5F00",
"n. c #6F523E",
"t. c #BA5615",
"`. c #FEF9F6",
"B. c #FEE1A6",
"a  c #FEDE9F",
" X c #E15A00",
"r. c #E4AB6F",
"A  c #CC691E",
"d. c #F9D79E",
"W. c #B54C15",
"8. c #BD5A16",
"#. c #C25E17",
"+. c #C76218",
"E  c #C76219",
"I  c #D16A1B",
"Z  c #CC661A",
"~  c #6D4F39",
"D  c #505050",
"J. c #CE5A0C",
"S  c #EDD29D",
"eX c #F1CCB4",
"fX c #D66E28",
"D. c #FCDB9F",
"m  c #D46E1C",
"7X c #D35500",
"2X c #E08D00",
".  c #31B5B0",
"K  c #494949",
".X c #E2610A",
"@  c #FFEBBF",
"6  c #9CD637",
"|  c #11F2B5",
"%  c #FFE8B7",
"<  c #FFE8B8",
"!  c #FFE5AF",
">  c #FFE8B9",
"*  c #FFE5B0",
"1  c #FFE5B1",
"c  c #FFE2A8",
"3  c #FFE2A9",
":X c #B84400",
"*. c #FFDFA0",
"C. c #B65014",
"F. c #D89458",
"o  c #EBA821",
"iX c #E7A980",
"Y. c #B64D15",
"6. c #C35F17",
"uX c #D4651C",
"T. c #CF5E11",
"[  c #C35F18",
"R  c #C86319",
"C  c #CD671A",
"3X c #D65600",
"j. c #515151",
"E. c #BB4E12",
"v  c #888070",
"z. c #FDDFA7",
"A. c #BC5B18",
"P  c #D56F1D",
"H  c #1CC804",
"N. c #674F41",
"0  c #C0230A",
"u. c #B75414",
"2. c #BC5815",
">X c #D95700",
"P. c #674935",
"a. c #726D63",
"h. c #C33C4D",
"<X c #EAA170",
"/. c #E85D00",
"0X c #DA6D25",
"M. c #C77334",
"&. c #BF5C17",
"]  c #C46018",
"T  c #C96419",
"V  c #CE681A",
"/  c #CE681B",
"^  c #D36C1C",
"}. c #F5C5A4",
"7  c #058823",
"^. c #689000",
"U. c #CE6824",
"+X c #E46F20",
"XX c #E15C03",
"8  c #0F8D24",
/* pixels */
"      . X o                                       O + @         ",
"    # $ O % & * =                             - ; : > O ,       ",
"    @ O < ; 1 2 3 4 5       6 7 8 9       0 q w * e r % >       ",
"    t < r y u i 4 p a s d f g h j k l z x 4 c i q v 1 e r       ",
"    > r - b b b n d f g m j k M z N B V C Z A S D b F G 1       ",
"    H - G J K L P m j k M I z N V C Z U Y T R E W K c Q 2       ",
"      ! q c ~ h ^ k l z N / C Z ( Y T ) _ ` ' ] [ { } 4 |       ",
"       .3 ..k l z N / X.o.( U O.) _ +.@.] [ #.$.%.&.*.=.-.      ",
"        4 z N N V C Z e e ;.R E :.] e e e $.>.,.<.1.2.3.        ",
"        N V C Z U Y T 1 1 1 4.5.6.7.1 1 1 <.8.9.0.q.w.e.        ",
"        Z ( Y T ) _ ` ! ! ! #.$.>.r.! ! ! 0.q.t.w.y.u.i.        ",
"      U O.i i +.' ] p.p.a.2 &.,.8.1.2 p.p.s.y.u.d.i f.g.h.      ",
"      R c c c c #.#.j.j.j.k.1.l.0.q.z.j.j.j.i.x.c c c c.v.      ",
"      ] b.b.b.b.>.,.<.n.9.b.K K K m.M.i.N.g.g.B.b.b.b.V.C.      ",
"      #.Z.Z.Z.Z.8.9.2.A.Z.Z.S.S.S.S.Z.D.g.v.v.F.Z.Z.Z.G.H.      ",
"      &.=.=.=.=.J.K.L.L.L.L.P.{ { L.L.L.L.L.I.U.=.=.=.H.Y.      ",
"      1.T.R.R.R.R.R.R.R.R.R.R.R.R.R.R.R.R.R.R.R.R.R.R.E.W.      ",
"    Q.!.!.!.!.!.!.!.!.!.!.!.!.!.!.!.!.!.!.!.!.!.!.!.!.!.!.~.    ",
"  ^././././././././././././././././././././././././././././.(.  ",
"  ).).).)._._._._.`.).).)._._._._._.'.).].].).).).).].].).).).  ",
"  [.[.[.[._._._._._._.[.[._._._._._.{.[.].].}.[.[.|.].].[.[.[.  ",
"   X X X X.XXXoXOX_._.+X X_._. X X X X X@X].]. X X].].#X X X X  ",
"  $X$X$X$X_._.$X$X_._.%X$X_._.$X$X$X$X$X$X].].$X$X].].$X$X$X$X  ",
"  &X&X&X&X_._.&X&X_._._.&X_._.*X].].=X&X&X].].-X;X].].&X&X&X&X  ",
":X>X>X>X>X_._.>X>X_._._.>X_._.*X].].,X>X>X%X].].<X].1X>X>X>X>X  ",
"2X3X3X3X3X_._.3X3X_._.4X3X_._.3X3X3X3X3X3X5X].].3X].3X3X3X3X3X  ",
"6X7X7X7X7X_._._._._._.7X7X_._.8X8X8X9X7X7X7X].].0X].7X7X7X7X7X  ",
"qXwXwXwXwX_._._._._.wXwXwX_._._._._.eXwXwXwX].].].rXwXwXwXwXwX  ",
"tXyXyXyXyXuXiXpXyXyXyXyXyXaXsXsXsXsXdXyXyXyXfXgXgXyXyXyXyXyXyX  ",
"hXyXyXyXyXyXyXyXyXyXyXyXyXyXyXyXyXyXyXyXyXyXyXyXyXyXyXyXyXyXyX  ",
"  yXyXyXyXyXyXyXyXyXyXyXyXyXyXyXyXyXyXyXyXyXyXyXyXyXyXyXyXyX/.  ",
"                                                                "
};
