/* XPM */
static const char *tsnsoft_xpm[] = {
/* columns rows colors chars-per-pixel */
"32 32 223 2",
"   c None",
"y  c #141007",
"N  c #1C74A6",
"t  c #1E1B14",
"8X c #3C3930",
"I. c #121C1D",
"[. c #F7F1E5",
"@X c #004775",
"g  c #1C71A7",
"J  c #1C6E9E",
"e  c #1C71A8",
"F. c #EFC403",
"B. c #152C3C",
"u. c #EFC404",
"/. c #499125",
"&  c #17170F",
"_  c #035181",
"1X c #035182",
"f. c #1A74A8",
"P  c #1A74A9",
"a  c #17140F",
"'. c #F0EADE",
"wX c #084C71",
"f  c #1A71A6",
"J. c #266D97",
"&. c #053C63",
"]  c #1A6B9A",
"K  c #151712",
",  c #EEAB02",
"$X c #F3F1E2",
"1  c #1A1B16",
"n. c #1A6896",
"eX c #F3F1E4",
"7  c #010101",
"!. c #21669D",
"a. c #014E82",
"h  c #4B7D9E",
";  c #1A1512",
"M. c #ECEDDF",
"A  c #1D72A8",
"8  c #170B15",
"O  c #181810",
"$  c #E2E2DA",
"`  c #045283",
"3X c #13649B",
"W  c #1D6FA7",
">  c #E5B31E",
"t. c #E53B18",
"q  c #1B72A7",
"-X c #116DB0",
"w  c #1B72A8",
"S. c #D04121",
")  c #025285",
"iX c #070909",
"0. c #025287",
" . c #185372",
"{  c #2070A5",
"=  c #161510",
"4. c #024F83",
"k  c #031B25",
"U  c #196FA2",
"#  c #898980",
"A. c #005280",
"0X c #005281",
"). c #075083",
"L  c #2374A1",
"v  c #0A0D09",
"}  c #1E70A2",
"N. c #141819",
"+  c #191911",
"{. c #EDEBDE",
"s. c #004F84",
"~. c #44952C",
"l. c #D34225",
"@  c #19160F",
"w. c #21749E",
"M  c #1C73A8",
"<  c #17190E",
"p. c #EFC300",
"k. c #03507C",
"V. c #03507E",
"z. c #E43C17",
"aX c #0A486F",
"h. c #495057",
"9  c #171611",
"l  c #15190A",
"r. c #D13F26",
"D. c #E23C14",
">. c #015385",
"n  c #1A70A9",
"^  c #1F71A3",
"%  c #EEECDF",
"}. c #041624",
"+X c #014D7E",
"D  c #1873AA",
".  c #1A170E",
"*  c #1A1710",
">X c #F3EDDF",
".X c #0E6BAE",
"yX c #064E7E",
"y. c #E03C16",
"6. c #186A99",
"%. c #186DA3",
".. c #095B8D",
"#X c #F1F0DE",
" X c #136CAE",
"2  c #2278B3",
"o  c #181712",
"_. c #F8EBE2",
"j. c #AEBCC9",
"8. c #1B74AC",
"x. c #E33D15",
"q. c #166794",
"XX c #41962E",
"oX c #419631",
"U. c #1A4C6D",
"@. c #07527C",
"*X c #024E80",
"(. c #024E82",
"I  c #27648A",
"6  c #EDAE00",
"b  c #237CB4",
"qX c #074F7F",
"i. c #F3C206",
"pX c #00517E",
"7X c #EAE3D9",
"b. c #005180",
"+. c #196B9A",
"<. c #196B9B",
"F  c #14679B",
"r  c #1270A4",
"L. c #005187",
":. c #043961",
"7. c #1774AF",
"2. c #004E85",
"OX c #074061",
"5. c #054F7E",
"-  c #14110C",
"o. c #054F80",
",X c #EDE7DB",
":X c #1E1913",
"z  c #1574A4",
"&X c #0D1925",
"G  c #03527D",
"$. c #1C6FA3",
"X  c #1C1C14",
"V  c #377493",
"5  c #12110C",
"R. c #034F80",
"d  c #3A81A1",
"]. c #F5EFDF",
":  c #EEAF02",
"K. c #F5EFE1",
"H. c #1C6695",
"6X c #479839",
"e. c #085080",
"S  c #1F76AC",
"'  c #015281",
"[  c #1A6FA5",
"E  c #1F709D",
"4X c #156BA6",
"=X c #156BA8",
"Z. c #0A3546",
"g. c #106196",
";. c #053A64",
"Y  c #014F80",
"x  c #1872A4",
"s  c #1A1914",
"Q  c #1872A7",
"c. c #F2C304",
"<X c #F3EFE3",
"uX c #06507F",
"p  c #345264",
"~  c #1D73A4",
"m  c #1675A3",
"C  c #1F1A14",
"1. c #1D70A2",
"Z  c #1F6AA4",
";X c #3E942F",
"^. c #439527",
"E. c #21619E",
"!  c #1D70A6",
"Y. c #2E292D",
"=. c #03375F",
"|. c #1368A8",
"%X c #F1EFE3",
"2X c #045081",
"4  c #1B73A3",
"tX c #045082",
"rX c #001B29",
"T. c #001E33",
"R  c #045084",
"H  c #226E9F",
"5X c #1869A8",
"-. c #0B456B",
"*. c #1E3F61",
",. c #025382",
"#. c #1B6D9C",
"/  c #1B70A6",
"j  c #276F9F",
"P. c #EFF2E9",
"v. c #EEC302",
"B  c #206E95",
"c  c #1B70A9",
"Q. c #1D67A4",
"X. c #025080",
"T  c #025081",
"i  c #2071A8",
"C. c #154462",
"0  c #1973A7",
"u  c #1973A8",
"`. c #F4F0E4",
"9X c #9D9D91",
"m. c #1970A5",
"3. c #154161",
"9. c #172F3D",
"3  c #1E71A3",
"W. c #1B67A5",
"O. c #005081",
"|  c #1773A4",
"G. c #005083",
"(  c #1C7AB0",
"d. c #196795",
/* pixels */
"                                                                ",
"                                                                ",
"                    . X                                         ",
"                  o O + @                                       ",
"                # $ O % &                                       ",
"                  * = - ;                                       ",
"                  : > , < 1   2 3 4                             ",
"                5   6 7 8 9 0 q w q e r                         ",
"                t         + y u w q q q i p                     ",
"              a           s 9 d f f q q q g g                   ",
"              &         h j k l z f f w q q q x c               ",
"            v 9     b 0 g q f n m q q f q q M q q N B           ",
"          V C 9   Z A S         D q q f q q q q q f F G         ",
"          H J K L P I             A q q q q q f U Y T R         ",
"          E q W Q !       ~ !     ^ / ( g f g ) ) _ ` '         ",
"          ] [ / f       { q f } | / /  .  ..X.o.  T X.O.        ",
"          +./ f f     | q q f / f /                 @.'         ",
"          #.f f f     $.f f / f / %.&.*.  =.-.;.  :.>.,.        ",
"          <.f f f       1.f f w 2._ _ 3.  X.4.5.  4.4.O.        ",
"          6.f f f Q       7.8.    9.X.X.' X.X.X.' 4._ 0.        ",
"          q.f f f f w.            e.X.r.t.t.y.u.i.p.a.s.        ",
"          d.f f f.! 0 g.h.    j.k.X.X.l.z.z.x.c.c.v.a.b.        ",
"          n.m.m.M.N.B.V.C.Z.A.X.X.X.X.S.z.z.D.c.c.F.a.G.        ",
"          H.m.J.K.L.P.I.U.Y.T.R.X.X.X.E.W.Q.!.~.^./.T (.        ",
"            ).X._.`.'.].[.{.}.R.X.X.X.|. X X.XXXXXoXk.OX        ",
"              +X@X#X$XK.%X&X*XR.R.X.X.=X X X-XXXXX;X            ",
"                  :X>X,X<X1XR.R.2X_ 2X3X=X4X5X6X                ",
"                    7X8X9X0XR.R.R.2X2X_ _ qXwX                  ",
"                      eXrXtX2XR.R.2X2XX.2X                      ",
"                            yXuX2XR.O.                          ",
"                              iXpXaX                            ",
"                                                                "
};
