/* XPM */
static const char *visual_studio_code_xpm[] = {
/* columns rows colors chars-per-pixel */
"64 64 106 2",
"$  c #0476B4",
"_  c #043254",
"d  c #0476BC",
"m  c #042634",
"K  c #0476C4",
"r  c #046AA4",
"~  c #042644",
"H  c #046AAC",
"6  c #041A24",
"S  c #045E8C",
".. c #041A2C",
"N  c #045E94",
">  c #24AEEC",
"Y  c #045E9C",
"@  c #040E14",
"#. c #24AEF4",
"O  c #1C8EBC",
"0  c #045284",
"o  c #1C8EC4",
"W  c #04528C",
"B  c #044664",
"   c #F0F0F0",
"&. c #146E94",
"V  c #048ACC",
"]  c #04466C",
"=. c #147AC4",
"z  c #048AD4",
"4  c #047EBC",
"C  c #043A5C",
")  c #047EC4",
" . c #047ECC",
"s  c #042E44",
"o. c #042E4C",
"F  c #149ADC",
"D  c #0472B4",
"J  c #0472BC",
"u  c #046694",
"#  c #042234",
"[  c #0472C4",
"A  c #04669C",
"L  c #04223C",
",  c #24B6F4",
"I  c #0466A4",
".  c #04161C",
"U  c #0466AC",
"X  c #045A84",
"G  c #041624",
"q  c #0C2A3C",
"}  c #045A8C",
"g  c #1CA2F4",
"=  c #24AAE4",
";  c #F0F0F0",
"l  c #0492D4",
"t  c #044E74",
"Z  c #040A14",
"&  c #1C96E4",
"i  c #0486C4",
"x  c #044264",
"w  c #146A94",
"M  c #0486CC",
"h  c #04426C",
"T  c #0486D4",
"%  c #047AB4",
"f  c #043654",
"j  c #047ABC",
"!  c #04365C",
"-. c #0C4A74",
"X. c #047AC4",
"R  c #047ACC",
":  c #042A44",
"+  c #145274",
"2  c #046EAC",
"a  c #041E24",
"P  c #046EB4",
"9  c #041E2C",
"(  c #046EBC",
"e  c #046294",
"O. c #041E34",
"'  c #04629C",
"*  c #24B2F4",
"/  c #0462A4",
"y  c #04121C",
"n  c #045684",
"|  c #1C9EEC",
"*. c #148ADC",
"@. c #04568C",
"$. c #1C9EF4",
"b  c #040604",
"k  c #048ECC",
"7  c #044A6C",
"E  c #F0F0F0",
"-  c #0C5E84",
"5  c #14729C",
"v  c #048ED4",
"c  c #044A74",
"+. c #044A7C",
"p  c #249AD4",
"3  c #043E5C",
"<  c #14668C",
"Q  c #0482C4",
"`  c #043E64",
"8  c #1C7AA4",
"%. c #0C527C",
"{  c #0482CC",
"^  c #0482D4",
"1  c #04324C",
/* pixels */
"                                                                                        . X o O + @                             ",
"                                                                                      # $ % $ & * = - ;                         ",
"                                                                                    : $ % % $ $ > , > > < @                     ",
"                                                                                  1 % % % % 2 $ > , , , > > < .                 ",
"                                                                                3 4 % % % $ $ 2 , , > , , , , = 5 6             ",
"                                                                              7 4 % % % % % $ 5 , > , , , , > , , > 8 9         ",
"                                                                            0 % 4 4 4 % % $ 2 2 , , , > > , , > > , > , % q     ",
"                                                                        ; X % 4 4 % % % $ $ % 5 > , , > , , > , , , > , , > w   ",
"                                                                      ; e % 4 4 4 4 % % % $ r $ > , > , > > , > , > , > > , > t ",
"                                                                    y u % % i % % % % % % $ % u , > , > , , > , > > , > , , , p ",
"                                                                  . 2 % % % % 4 % i % % % 2 $ 2 , , > , > , , > , > , > > , > , ",
"                                                                a 2 % % % % i % 4 % % % % $ % u , = , > , > = , > , = , > , > > ",
"                                                              # $ % % % % % % % % % 4 % % 2 $ r , , > , > , > > , > , > , = , > ",
"                                                            s d % % 4 % % % % % 4 % % % $ $ $ 2 = , > = , > > , = , = , = , > > ",
"                                                          f % % d % $ % % % 4 % 4 4 % % % 2 5 2 , = , > > , > > , = , = , g , , ",
"        ; 3 7 6                                         h $ j $ d % % % 4 % % 4 4 % % % $ $ $ r = , = , = , > , = , = , > , , > ",
"      y 4 k l z x                                     c % d $ j $ j $ % % 4 % 4 4 4 % % $ 2 2 r , > > > , = > , > > > > , = > g ",
"    6 i v l v l v e b                               n $ $ d $ j $ $ % % % % % 4 % % % $ $ $ $ X , > , > > > , > = , > , > > > , ",
"  m M l v v l k l v 4 9                         b N $ j $ j $ $ d % $ % % % % % % 4 % % $ 2 B ; = > > , g , > > > > > > > , g , ",
": V v v v l v v v l k V C                     Z A $ $ d $ d $ $ % 2 $ $ $ % % % % % % % 2 s     , > > > , > > > , , g , > > > > ",
"4 l v k v v v v v v l v v S b               y r D d $ d $ $ j $ $ % $ $ $ $ % % $ % $ S . b     = > > > , = , = > , > > , = , F ",
"v v v z v v v v v v v v v V % G           6 r D $ % $ d $ d $ $ $ % 2 $ % 2 $ $ $ $ 7 ;         > > > , g > > > = > > > , g > , ",
"r v v v v z v v v v v z v v v z f       9 H D $ D $ d D $ J $ J $ $ $ $ 2 % $ $ $ s b           > g , , > , = > > > , = > , g , ",
"@ K z v z v v v v v z v v v v z k n b L r 2 D D D $ D $ D $ % 2 % 2 $ $ $ % $ u .             ; g , > > , g > > > > > > > > > > ",
"  Z P v z v z z v z v v z v z v z v K 2 I 2 r D 2 D D $ D $ D $ $ $ 2 % 2 $ t ; b               > > > > > , > > > > > > > > > g ",
"    Z U v z v z z v z z v z z v z v z V $ I r 2 2 2 $ 2 $ 2 $ $ 2 $ % 2 % f                     > = , g > = > > > > = , g , > > ",
"        Y T v z v z z v z z v z v z z v z R U r r 2 2 $ 2 $ $ 2 % 2 % u a b                     = g , , = g , = > > > > > > g , ",
"        E W z v z z z z z v z z z z v z z V Q 2 r r 2 2 2 $ 2 % 2 $ n ;                         > , g = = , > > > > > > > > > = ",
"            h z z z v z z z z z z z z v z v z z D r r 2 2 $ 2 $ 2 3                             g , > > g , F , > g , = > > > g ",
"          E E ! z z z T z z z z z v z T z z z V k % r r r 2 2 u a                               > = > > , F , > > , F , g , g > ",
"              E ~ T z z z z z z T z z z z z T z z k i r r r X @                                 g > g , = , = g , = , = > = , F ",
"              E E ~ ^ T z T z T z z z z T z z T z V i k 2 3                                     , g > , F , g > = , F , g > g * ",
"                  G U ^ T z T z z T z z z z T z z T z i i B b                                   g , F , , F , > g , > = > g , F ",
"                L U / ( ^ T z z T z T z T T z z T T z z V V A ;                               ; g = , g = , = > , F , F , g > > ",
"              : U U U U U ^ T T T z T z T z T T z T T z z T T ) #                               = g , F , F , g , > > > > > F , ",
"            _ ( ( ( ( U U / ^ T T T z T T T T T T z T T T T T T M `                           ; g > = , g , g = , F , g > g , g ",
"          ` 2 H H ( U U U U / R T T T T T T T T T T T z T T T T T M ' ;                         = g > g , = g , F , F , g , F , ",
"        ] 2 P P P ( U [ U U U / R ^ T T T T T T T T T ^ T T T T T M T $ 9                       > g = , F = , F , g > = , F , g ",
"      0 P P 2 P P P ( U ( U U U / [ ^ ^ z T T T z T T T T T T ^ T T T ^ { `                     g , F , > g > > g , = F , g , F ",
"  E } 2 P 2 P P D H ( ( U U U U / / U ^ T ^ T T ^ T ^ T T T ^ T T ^ T T ^ T } b                 , F > > g = > g = , F , g = g > ",
"Z N P P 2 P 2 P 2 P 2 ( ( ( U U / ` E _ R T ^ T T T T ^ ^ T T ^ T T T T T ^ T d 6               | > g > > = F , F , g , F , F * ",
"0 2 P 2 P 2 P 2 P H ( U ( U U / ~ E E E L ^ T T ^ T ^ T T ^ T T ^ T T ^ M T { M  .f             , F , F , F , g , F , F , F > g ",
"2 H P P 2 P H P H P H ( U ( W y E E E E E ..[ ^ T ^ T ^ ^ T ^ ^ T ^ ^ T ^ T T ^ { M n E         | > g , F , F , F , F , g , F * ",
"Y P H P H H P P H ( ( U ( h Z E E E     E E ..[ T ^ T ^ ^ T ^ T ^ T ^ T ^ T ^ { M ^ { P .       > g > F , F , F , F , F , F > g ",
"L H 2 H P 2 H P P H ( U ~ E E E           E E Z ( ^ ^ ^ ^ ^ ^ ^ ^ T ^ ^ ^ ^ ^ T { ^ {  .X.o.    g = g > F , g g g , g g g > g g ",
"  O.H H P H P U ( U Y G E E E   E     E     E E Z / ^ ^ ^ ^ ^ T ^ ^ ^ ^ ^ ^ M ^ ^ { { {  .) c b > g g g * g g * g g * F , g g = ",
"    y U H ( H ( U +.E E E         E             E E W ^ ^ ^ R ^ ^ ^ ^ ^ ^ ^ ^ ^ { ^ { {  .) K e F * g > g g g * g g g , F > g F ",
"    E G @.( U U _ E E E   E     E           E   E E E W R ^ ^ ^ ^ ^ ^ ^ ^ ^ ^ ^  .^ T  . .) K d * F > g g g * g g g * F > g g > ",
"        Z o.! G E E           E       E         E   E E +.R R ^ R ^ ^ R ^ R ^ ^ ^  . .^  .R K d g g g , F > g * g > g g > g > F ",
"          E E E E                 E         E     E   E E h R ^ R ^ R ^ ^ R ^ ^  .^ ^  . .R d D > F , F g * g F > g F , F > g g ",
"                    E   E                     E         E E o.R ^ R ^ R ^ ^ R R ^ ^ R ^ R R K J g g F , F g > g g > g g > F > g ",
"                                      E   E           E   E E ~ R ^ R ^ R ^ R ^ R R ^  .R R d D #.F , F g , F > g > F , F > g g ",
"                  E   E     E                             E E E ..[ ^ R ^ R R ^ R ^ R R R R K [ F g g g * F g > F * F g * F g = ",
"                        E               E     E   E   E       E E ..[ R R ^ R ^ R ^ R R ^ R K ( #.g g > g g g g > g g > g g g g ",
"                                E         E           E     E   E E Z ( R R R R ^ R ^ R R [ R ( $.g g F * F > F g > F > F > F l ",
"                            E       E   E       E       E         E E Z U R R ^ R R R R R R [ $ g g g g g F * F > g g g * F = %.",
"                                                          E     E   E E E Y R R R R R R [ R [ [ g g g > g > F * F g > F g g u   ",
"                                              E     E   E             E E E W R R R R R R R [ P > F > F g F * F g g g F % m     ",
"                                                            E     E     E E E h R R [ R [ [ [ ( F g g g g g F * F g 5 m b       ",
"                                                              E           E E E ! [ R R [ [ [ [ g g F > F > g F &.a ;           ",
"                                                                      E       E E _ [ [ [ [ [ [ $.g g g g F u a ;               ",
"                                                                  E           E E E ~ [ R [ [ [ $.F g F X . b                   ",
"                                                                                E E E O.( [ [ ^ $.*.@.y                         ",
"                                                                                    E E y +.=.=.-.Z                             "
};
