/* XPM */
static const char *visualstudio_xpm[] = {
/* columns rows colors chars-per-pixel */
"60 60 97 2",
"A  c #F0F0F0",
"^  c #543A6C",
"m  c #1C1224",
"9  c #6C4A9C",
"|  c #3C2A44",
"3  c #8C62BC",
"t  c #CC92F4",
"c  c #AC7ADC",
"}  c #3C2A4C",
"   c #F0F0F0",
"L  c #5C426C",
"F  c #AC7AE4",
"T  c #74529C",
"{  c #3C2A54",
"Y  c #543A84",
"n  c #946ABC",
"Q  c #3C2A5C",
"5  c #D49AFC",
"$  c #241A34",
"O  c #7452AC",
"x  c #B482E4",
"p  c #443254",
"U  c #9C72BC",
"`  c #B482EC",
"o  c #0C0A14",
"!  c #5C428C",
"<  c #644A7C",
"d  c #2C2234",
"w  c #DCA2FC",
"2  c #5C4294",
"E  c #44326C",
"S  c #4C3A5C",
"r  c #7C5ABC",
"j  c #BC8AF4",
"a  c #E4AAFC",
"#  c #4C3A64",
"y  c #A47ACC",
".  c #141224",
"&  c #644A9C",
"v  c #A47ADC",
"G  c #A47AE4",
"7  c #AC82D4",
"g  c #8C6AC4",
"H  c #AC82E4",
"f  c #24162C",
"1  c #F0F0F0",
"M  c #5C3E84",
".. c #7C56A4",
"8  c #2C1E34",
"4  c #DC9EFC",
"Z  c #9C6ECC",
"O. c #644684",
" . c #2C1E3C",
"+  c #7C56B4",
"o. c #4C365C",
"*  c #9C6ED4",
"W  c #64468C",
"z  c #2C1E44",
"N  c #A476C4",
"h  c #BC86F4",
">  c #E4A6FC",
"'  c #845EAC",
"0  c #644694",
"X. c #C48EEC",
"J  c #A476D4",
"B  c #6C4E8C",
":  c #845EBC",
"]  c #4C3674",
"R  c #A476DC",
"X  c #34264C",
"e  c #4C367C",
"[  c #A476E4",
"D  c #1C1624",
"(  c #6C4E9C",
"s  c #AC7ED4",
"k  c #8C66BC",
"q  c #CC96F4",
";  c #1C162C",
"@  c #6C4EA4",
"C  c #AC7EDC",
"u  c #040604",
"/  c #543E7C",
"V  c #AC7EE4",
"_  c #74569C",
"i  c #3C2E54",
"l  c #F0F0F0",
"=  c #B486D4",
"P  c #AC7EEC",
"K  c #946EC4",
",  c #D49EFC",
"-  c #241E34",
")  c #241E3C",
"%  c #7456B4",
"b  c #B486EC",
"~  c #5C468C",
"I  c #B486F4",
"6  c #DCA6FC",
/* pixels */
"                                                                                                                        ",
"                                                                                                                        ",
"                                                                                . X o                                   ",
"                                                                              X O + @ #                                 ",
"                                                                            $ % @ @ & * = -                             ",
"                                                                          ; @ O @ O & : > , <                           ",
"                                                                        1 & % O @ @ 2 3 4 5 6 7 8                       ",
"                                                                      1 2 O O 9 O @ 0 3 , q 5 w , <                     ",
"                                                                      e r O 9 O 9 O 2 + 4 4 t 5 5 > y 8                 ",
"                                                                    e + 9 O O O 9 9 9 : 4 t 4 5 5 q w w <               ",
"                        u i p                                     X + O O 9 + 9 9 9 9 + 4 t t t 4 t 4 t a s d           ",
"                      f g h j k l                               z + O 9 9 + 9 + 9 9 9 + t 4 t 4 t 4 t 4 q w 4 <         ",
"                    i s x c v b n o                           m O O 9 + + 9 + 9 9 9 M + 4 t t 4 t t 4 t 4 t 5 > N u     ",
"                l B b V c c C v x Z o                     l A 9 + 9 + 9 9 + 9 + 9 9 9 + 4 t 4 t t 4 t 4 t 4 5 q a S     ",
"              D n h C F 7 G H x J x K D                     0 + 9 + 9 + 9 9 + 9 9 9 9 + t t t t 4 t t 4 t t 4 t 4 L 1   ",
"            p F H c H v P V F F 7 v I U .               1 Y + 9 + 9 + 9 9 + 9 + 9 9 M + 4 t t t t t t t t t t t > L     ",
"        u T b V x c F H c C G V G V C H R D             E + 9 + 9 + 9 + 9 9 + 9 9 9 9 + t t 4 t t t 4 t t 4 t t 4 L 1 1 ",
"      o W k c C F H v C G V C c C V v F V v ;       1 Q + 9 + 9 + 9 + 9 9 + 9 + 9 9 M + 4 t t t t t t t t t t t 4 L 1   ",
"    l ! 2 e ~ V V C V C C V G C F c v V v x v 8     z O + 9 + 9 9 + 9 + 9 9 + 9 9 9 9 + t t t t t t t t t t t t 4 ^ A 1 ",
"    z 0 ! ! / ( V F C F C F C v C v x c c R F F z A + O 9 + 9 9 + 9 + 9 9 + 9 + 9 9 M + 4 t t t t t t t t t t t 4 L     ",
"    ) & M 2 2 Y _ ` v V v C F C v c v c c c c F F + 9 9 + 9 + 9 9 + 9 + 9 9 + 9 9 9 9 + t t t t t t t t t t t t 4 ^ A 1 ",
"    z 0 2 2 2 W e ' b R x F c R F c c c c c R F F F + 9 9 + 9 9 + 9 + 9 9 + 9 + 9 9 9 + t t t t t t t t t t t t 4 L     ",
"    ) 2 2 2 0 2 W e n C c c F c F c R c c c * F * F F + 9 9 + 9 9 + 9 + 9 9 + 9 9 + Y ] t t t t t t t t t t t t 4 ^ A 1 ",
"  l z 9 M 2 M 0 M M Y Z F [ c R F F F * F * F F [ [ * F + 9 + 9 + 9 + 9 9 + 9 9 + M A { 4 t t t t t t t t t t t 4 L 1   ",
"    z 2 M M M M 2 M M Y * F F F c * F F F F * [ [ [ [ * F + 9 9 9 + 9 + 9 9 9 + M m 1 } 4 t t t t t t t t t t t 4 ^ A 1 ",
"  A z 9 M M M M M M M Y f F F * F F F F F [ [ [ [ * [ [ [ F + 9 + 9 + 9 + 9 + M A 1 A { t t t t t t t t t t t t 4 L     ",
"    z 0 M M M M M M 9 Y A z F F * F F F * [ [ [ [ [ [ * [ * F 3 9 9 9 + 9 + M A 1 1 1 | 4 t t t t t t t t t t t 4 ^ A 1 ",
"l 1 z 9 M M M M M M M Y A A e F * F F * [ [ [ [ [ * [ [ [ [ * F 3 9 + 9 + Y 1 1 1 1 A } t t t t t t t t t t t t 4 L     ",
"    z 0 M M M M M M 9 Y A 1 1 M h * [ [ [ [ * [ [ [ [ * [ * [ * F 3 9 + Y A 1 1       | 4 t t t t t t t t t t t 4 ^ A 1 ",
"  A z 9 M M M M M M M Y 1 1 1 A 9 F [ [ * [ [ [ [ * [ * [ [ * [ * * * Q 1 1         A { t h t t t t t t t t t t 4 ^     ",
"    f 0 M M M M M M 9 Y A 1 1 1 Q * F * F * [ [ * [ [ [ * [ [ * [ * F 9 A             | 4 t t t t t t t t t t h 4 ^ A 1 ",
"  A z 9 M M M M M M M Y 1 1 1 Q + 9 * F * [ [ [ [ * [ * [ [ * [ * [ * F 9           A { t t t t t t t t t t t t 4 L     ",
"    z 0 M M M M M M 9 Y A 1  .+ 9 9 9 * F [ * [ * [ [ * [ * [ * [ * [ * F + 1         | 4 t t t t t t t t t t h 4 ^ A 1 ",
"l 1 z 9 M M M M M M M Y A f + + 9 + 9 + [ [ [ * [ [ * [ * [ * [ * [ * F * ` ..    1 1 { t h t t t t t t t t t t 4 ^     ",
"    z M M M M M M M 9 Y f 9 + 9 + 9 9 9 + F * [ * [ [ * [ * [ * [ * [ * [ * F : A   1 | 4 h t t t t t t t t t h 4 ^ A   ",
"  A z 9 M M M M M M M Y 9 + 9 + 9 9 + 9 9 + F * [ [ * [ * [ * [ * * * [ * F * F ..A 1 } 4 h t t t t t t t t t X.4 ^     ",
"    f 9 M M M M M M M 9 + 9 + 9 + 9 9 + 9 9 3 F * * [ * [ * [ * [ * [ * * * [ * [ ' A 8 4 h t t t t t t t t t h 4 ^ A 1 ",
"  A z 9 M M M M M M 9 + 9 + 9 + 9 9 + 9 9 9 9 3 F [ * [ * [ * * * [ * * [ * * * Z c 9 ^ t h t h t h t h t h t h 4 ^     ",
"    z M M M M M M 9 9 9 + 9 + 9 + 9 9 + 9 + 9 9 * * [ * [ * [ * [ * * * * * * * * 3 3 * t t t t t t h t t t t h 4 ^ A   ",
"  A z 9 M M M M M + 9 + 9 + 9 + 9 9 + 9 + 9 9 9 9 * [ * * * * [ * * [ * * [ * * * * 3 * t h t h h t h t h h t h 4 ^     ",
"    z 0 M M M M + 9 + 9 + 9 + 9 + 9 9 + 9 9 + 9 f f [ * [ * [ * * * * * [ * * * * * 3 * t h t t h t t h t t h X.t ^ A 1 ",
"  1 m M M Y M + 9 + 9 + 9 + 9 + 9 9 + 9 9 + 9 f A A Q F * * * [ * * [ * * * * * * * 3 * t h t h t h t h t h t h 4 L     ",
"      A M 9 9 9 + 9 + 9 + 9 + 9 + 9 9 9 + 9 f A 1 1 1 Y F * * * * [ * * * * * * * * 3 * t h t h t t h t h t t h t ^ A 1 ",
"    l A A e + + 9 + 9 + 9 + 9 + 9 + 9 + 9 m 1     1 1 A 9 F * [ * * * * * * * * * * 3 * t t t h t h t h t X.h X.4 L     ",
"        1 1 z 9 + 9 + 9 + 9 + 9 + 9 + 9 f A l           1 + F * * * * * * * * * * * 3 * h h t h t h t h t h t h t ^ A   ",
"          1 A f M + 9 + 9 + 9 9 9 + 9 A               1 1 A 3 [ * [ * * * * * * * * 3 * t t h t h t h t h X.h X.t L     ",
"              1 A Q + 9 9 9 + 9 + M m A 1                 1 m * * * * * * * * * * * 3 * h h t h t h t h t h t h 4 o.1 1 ",
"              l 1 A z + + 9 9 + M A 1                     1 A f * * * * * * * * * * 3 * t t h t h t h t h X.h 4 n A     ",
"                  1 1 m M + + M m 1 1                       1 1 Q F * * * * * * * * 3 * h h t h t h t h h t t L A 1 1   ",
"                    1 A A z z A 1                           1 1 A e F * * * * * * * 3 * h t h h t h h X.t N f 1 1       ",
"                        1 1 1 1                                 1 1 M F * * * * * * 3 * h h t h h h t t O.A A 1 1       ",
"                                                                  1 A + * * * * * * 3 * t t h h t t N f 1 1             ",
"                                                                      A + F * * * * 3 * h h h t t M A A 1 1             ",
"                                                                    1 1 f 3 * * * * 3 * h h 4 Z f A 1                   ",
"                                                                        1 f * * * * 3 * t t M A A 1 1                   ",
"                                                                        1 A z * * * 3 F c f 1 1                         ",
"                                                                          1 1 E * * * M A A 1 1                         ",
"                                                                          1 1 A f Q f 1 1                               ",
"                                                                              1 1 A 1 1 1                               ",
"                                                                                                                        "
};
